<?xml version="1.0" standalone="no"?><!DOCTYPE svg PUBLIC "-//W3C//DTD SVG 1.1//EN" "http://www.w3.org/Graphics/SVG/1.1/DTD/svg11.dtd"><svg t="1607843007739" class="icon" viewBox="0 0 1024 1024" version="1.1" xmlns="http://www.w3.org/2000/svg" p-id="7509" xmlns:xlink="http://www.w3.org/1999/xlink" width="128" height="128"><defs><style type="text/css"></style></defs><path d="M5.170741 387.610589L0.00983 73.040809A71.84315 71.84315 0 0 1 73.040809 0.00983l314.56978 5.160911c18.677581 0.286717 36.45405 7.823285 49.643044 21.012278L1002.946762 591.876148a71.84315 71.84315 0 0 1 0 101.579825l-309.449829 309.490789a71.84315 71.84315 0 0 1-101.579825 0L26.14206 437.253633a71.84315 71.84315 0 0 1-21.012279-49.643044zM307.616477 303.520517a96.86947 96.86947 0 1 0-137.009884-137.050845A96.86947 96.86947 0 0 0 307.616477 303.520517z" p-id="7510"></path></svg>
