<?xml version="1.0" standalone="no"?><!DOCTYPE svg PUBLIC "-//W3C//DTD SVG 1.1//EN" "http://www.w3.org/Graphics/SVG/1.1/DTD/svg11.dtd"><svg t="1607842951913" class="icon" viewBox="0 0 1024 1024" version="1.1" xmlns="http://www.w3.org/2000/svg" p-id="6666" xmlns:xlink="http://www.w3.org/1999/xlink" width="128" height="128"><defs><style type="text/css"></style></defs><path d="M478 239c0 66-0.2 238.9-0.2 238.9S305 478 239 478C107 478 0 371 0 239S107 0 239 0s239 107 239 239z m68 0c0 66 0.2 238.9 0.2 238.9s172.8 0.1 238.8 0.1c132 0 239-107 239-239S917 0 785 0 546 107 546 239z m-68 546c0-66-0.2-238.9-0.2-238.9S305 546 239 546C107 546 0 653 0 785s107 239 239 239 239-107 239-239z m68 0c0-66 0.2-238.9 0.2-238.9S719 546 785 546c132 0 239 107 239 239s-107 239-239 239-239-107-239-239z" p-id="6667"></path></svg>
